<svg width="272" height="272" viewBox="0 0 272 272" fill="none" xmlns="http://www.w3.org/2000/svg">
<path d="M207.576 43.3677C216.534 43.3677 223.863 44.7249 229.564 47.4394C235.4 50.0182 240.557 53.072 245.036 56.6009C247.751 58.6368 249.787 58.9082 251.144 57.4152C252.637 55.7865 253.655 52.0541 254.198 46.2179H258.88C258.609 51.6469 258.405 58.2974 258.269 66.1695C258.134 73.9058 258.066 84.2209 258.066 97.1148H253.383C252.84 90.6 251.958 84.8317 250.737 79.8099C249.515 74.6523 247.683 70.1055 245.24 66.1695C242.797 62.2335 239.268 58.7725 234.653 55.7865C231.803 53.8864 228.749 52.3934 225.492 51.3076C222.37 50.2218 219.113 49.6789 215.72 49.6789C207.983 49.6789 201.604 51.8505 196.582 56.1937C191.561 60.4012 187.625 65.9659 184.774 72.8879C182.06 79.6741 180.16 87.139 179.074 95.2825C177.988 103.29 177.445 111.094 177.445 118.695C177.445 126.296 177.988 134.168 179.074 142.311C180.16 150.319 182.06 157.784 184.774 164.706C187.625 171.492 191.561 177.057 196.582 181.4C201.604 185.608 207.983 187.711 215.72 187.711C219.113 187.711 222.37 187.168 225.492 186.083C228.749 184.861 231.803 183.368 234.653 181.604C241.44 177.396 245.986 171.764 248.294 164.706C250.737 157.648 252.433 148.555 253.383 137.425H258.066C258.066 150.726 258.134 161.516 258.269 169.796C258.405 177.939 258.609 184.793 258.88 190.358H254.198C253.655 184.522 252.705 180.857 251.347 179.364C250.126 177.871 248.022 178.075 245.036 179.975C240.014 183.504 234.653 186.625 228.953 189.34C223.388 191.919 216.195 193.208 207.373 193.208C192.036 193.208 178.599 190.29 167.062 184.454C155.526 178.618 146.568 170.203 140.189 159.209C133.81 148.215 130.62 134.982 130.62 119.509C130.62 104.308 133.877 91.0072 140.392 79.6063C147.043 68.2054 156.136 59.3154 167.673 52.9363C179.21 46.5572 192.511 43.3677 207.576 43.3677Z" fill="black"/>
<path d="M163.571 183.029L167.439 184.047C166.761 192.733 165.2 200.334 162.757 206.848C160.314 213.363 156.92 218.249 152.577 221.507C149.591 223.814 145.791 225.579 141.176 226.8C136.562 228.022 131.879 228.632 127.129 228.632C119.528 228.632 111.995 227.479 104.531 225.171C97.2014 223 89.8044 220.217 82.3396 216.824C75.0104 213.567 67.4098 210.31 59.5377 207.052C58.7234 206.781 57.8412 206.441 56.8911 206.034C55.941 205.763 55.1945 205.627 54.6516 205.627C52.0729 207.12 49.2226 208.341 46.101 209.292C43.115 210.242 40.2648 210.717 37.5503 210.717C34.8358 210.717 32.5285 210.242 30.6283 209.292C28.8639 208.341 27.9817 206.781 27.9817 204.609C27.9817 200.402 31.7141 198.298 39.179 198.298C43.9294 198.298 49.0869 199.519 54.6516 201.962C59.8092 200.605 64.2203 199.044 67.8848 197.28C71.6851 195.651 75.5533 194.09 79.4893 192.597C83.4254 191.104 88.1757 190.154 93.7405 189.747L93.944 193.005C89.6008 193.412 85.8005 194.158 82.5431 195.244C79.4215 196.466 76.2319 197.755 72.9745 199.112C69.8528 200.469 66.1204 201.759 61.7772 202.98C73.4496 203.252 83.4932 203.455 91.9082 203.591C100.459 203.863 108.059 203.795 114.71 203.388C121.496 202.98 127.943 202.166 134.051 200.944C141.516 199.316 147.42 197.212 151.763 194.633C156.242 192.054 160.178 188.186 163.571 183.029ZM90.0759 43.3677C105.413 43.3677 118.85 46.2858 130.386 52.1219C141.923 57.9581 150.881 66.3731 157.26 77.3668C163.639 88.2248 166.828 101.458 166.828 117.066C166.828 132.268 163.571 145.569 157.056 156.97C150.541 168.37 141.448 177.26 129.775 183.64C118.239 190.019 104.938 193.208 89.8723 193.208C74.5354 193.208 61.0986 190.29 49.562 184.454C38.0253 178.618 29.0675 170.203 22.6884 159.209C16.3093 148.215 13.1198 134.982 13.1198 119.509C13.1198 104.308 16.3772 91.0072 22.892 79.6063C29.5425 68.2054 38.6361 59.3154 50.1727 52.9363C61.7093 46.5572 75.0104 43.3677 90.0759 43.3677ZM89.2615 47.0323C82.4753 47.0323 76.5712 50.0861 71.5494 56.1937C66.5276 62.3013 62.6594 70.7163 59.9449 81.4386C57.2304 92.1608 55.8732 104.58 55.8732 118.695C55.8732 133.082 57.434 145.637 60.5557 156.359C63.6774 166.945 67.8848 175.157 73.1781 180.993C78.4714 186.693 84.3076 189.544 90.6866 189.544C97.4729 189.544 103.377 186.49 108.399 180.382C113.421 174.274 117.289 165.86 120.003 155.137C122.718 144.279 124.075 131.86 124.075 117.881C124.075 103.358 122.514 90.8036 119.392 80.217C116.271 69.6305 112.063 61.487 106.77 55.7865C101.477 49.9503 95.6406 47.0323 89.2615 47.0323Z" fill="black"/>
</svg>
